<svg xmlns="http://www.w3.org/2000/svg" width="1600" height="900" viewBox="0 0 1600 900">
  <rect width="1600" height="900" fill="#ffffff"/>
  <rect x="0" y="0" width="260" height="900" fill="#111827"/>
  <text x="28" y="58" font-family="Arial,sans-serif" font-size="30" font-weight="700" fill="#fff">Rabbit</text>
  <text x="130" y="112" font-family="Arial,sans-serif" font-size="22" font-weight="600" text-anchor="middle" fill="#fff">Admin Dashboard</text>
  <rect x="20" y="150" width="220" height="48" rx="7" fill="#374151"/><text x="55" y="181" font-family="Arial,sans-serif" font-size="18" fill="#fff">Users</text>
  <rect x="20" y="210" width="220" height="48" rx="7" fill="#1f2937"/><text x="55" y="241" font-family="Arial,sans-serif" font-size="18" fill="#d1d5db">Products</text>
  <rect x="20" y="270" width="220" height="48" rx="7" fill="#1f2937"/><text x="55" y="301" font-family="Arial,sans-serif" font-size="18" fill="#d1d5db">Orders</text>
  <rect x="20" y="330" width="220" height="48" rx="7" fill="#1f2937"/><text x="55" y="361" font-family="Arial,sans-serif" font-size="18" fill="#d1d5db">Shop</text>
  <rect x="20" y="820" width="220" height="48" rx="7" fill="#ef4444"/><text x="130" y="851" font-family="Arial,sans-serif" font-size="18" font-weight="700" text-anchor="middle" fill="#fff">Logout</text>
  <text x="315" y="72" font-family="Arial,sans-serif" font-size="34" font-weight="700" fill="#111827">Product Management</text>
  
  <rect x="315" y="125" width="1140" height="48" fill="#e5e7eb"/>
  <text x="345" y="155" font-family="Arial,sans-serif" font-size="14" font-weight="700" fill="#334155">NAME</text>
  <text x="720" y="155" font-family="Arial,sans-serif" font-size="14" font-weight="700" fill="#334155">PRICE</text>
  <text x="965" y="155" font-family="Arial,sans-serif" font-size="14" font-weight="700" fill="#334155">SKU</text>
  <text x="1240" y="155" font-family="Arial,sans-serif" font-size="14" font-weight="700" fill="#334155">ACTIONS</text>
  <text x="345" y="215" font-family="Arial,sans-serif" font-size="16" fill="#111827">Slim-Fit Stretch Shirt</text>
  <text x="720" y="215" font-family="Arial,sans-serif" font-size="16" fill="#475569">$29.99</text>
  <text x="965" y="215" font-family="Arial,sans-serif" font-size="16" fill="#475569">SH-001</text>
  <rect x="1220" y="188" width="85" height="38" rx="5" fill="#eab308"/><text x="1262" y="213" font-family="Arial,sans-serif" font-size="14" font-weight="700" text-anchor="middle" fill="#fff">Edit</text>
  <rect x="1320" y="188" width="95" height="38" rx="5" fill="#ef4444"/><text x="1367" y="213" font-family="Arial,sans-serif" font-size="14" font-weight="700" text-anchor="middle" fill="#fff">Delete</text>
  <line x1="315" y1="245" x2="1455" y2="245" stroke="#e5e7eb"/>
  <text x="345" y="295" font-family="Arial,sans-serif" font-size="16" fill="#111827">Classic Oxford Shirt</text>
  <text x="720" y="295" font-family="Arial,sans-serif" font-size="16" fill="#475569">$39.99</text>
  <text x="965" y="295" font-family="Arial,sans-serif" font-size="16" fill="#475569">SH-002</text>
  <rect x="1220" y="268" width="85" height="38" rx="5" fill="#eab308"/><text x="1262" y="293" font-family="Arial,sans-serif" font-size="14" font-weight="700" text-anchor="middle" fill="#fff">Edit</text>
  <rect x="1320" y="268" width="95" height="38" rx="5" fill="#ef4444"/><text x="1367" y="293" font-family="Arial,sans-serif" font-size="14" font-weight="700" text-anchor="middle" fill="#fff">Delete</text>
  </svg>